<?xml version="1.0" encoding="UTF-8" standalone="no"?>
<svg
   xmlns:dc="http://purl.org/dc/elements/1.1/"
   xmlns:cc="http://creativecommons.org/ns#"
   xmlns:rdf="http://www.w3.org/1999/02/22-rdf-syntax-ns#"
   xmlns:svg="http://www.w3.org/2000/svg"
   xmlns="http://www.w3.org/2000/svg"
   xmlns:sodipodi="http://sodipodi.sourceforge.net/DTD/sodipodi-0.dtd"
   xmlns:inkscape="http://www.inkscape.org/namespaces/inkscape"
   width="340"
   height="270"
   version="1.1"
   id="svg4"
   sodipodi:docname="dragin.svg"
   inkscape:version="0.92.2 5c3e80d, 2017-08-06">
  <metadata
     id="metadata10">
    <rdf:RDF>
      <cc:Work
         rdf:about="">
        <dc:format>image/svg+xml</dc:format>
        <dc:type
           rdf:resource="http://purl.org/dc/dcmitype/StillImage" />
      </cc:Work>
    </rdf:RDF>
  </metadata>
  <defs
     id="defs8" />
  <sodipodi:namedview
     pagecolor="#ffffff"
     bordercolor="#666666"
     borderopacity="1"
     objecttolerance="10"
     gridtolerance="10"
     guidetolerance="10"
     inkscape:pageopacity="0"
     inkscape:pageshadow="2"
     inkscape:window-width="1144"
     inkscape:window-height="775"
     id="namedview6"
     showgrid="false"
     inkscape:zoom="0.87407407"
     inkscape:cx="170"
     inkscape:cy="135"
     inkscape:window-x="0"
     inkscape:window-y="0"
     inkscape:window-maximized="0"
     inkscape:current-layer="svg4" />
  <path
     style="fill:#ffd700;stroke:none;fill-opacity:0.98039216"
     d="M236 0C260.319 27.5574 232.183 52.1222 212.328 71.5805C206.077 77.7057 199.414 90.482 189.998 92.0092C184.555 92.8921 176.753 84.3886 182.61 80.1043C185.515 77.9798 189.843 80.714 193 81L191 84L192 85L196 82L195 85C200.366 81.9904 202.375 78.0335 201 72C197.092 73.7952 195.176 74.0421 192 71L196 70C190.029 67.9771 183.905 69.4047 178 71C182.458 67.4804 200.951 62.1333 202 70L205 67L207 70C221.539 54.3361 193.51 51.4079 186 43C186.113 45.9075 187.335 47.6126 189 50C181.244 45.0889 173.847 39.7998 165 37C168.809 41.0082 173.256 44.1781 178 47C164.231 42.6625 152.265 33.6721 138 30C145.276 36.5435 154.561 43.0523 163 48C156.915 48.2342 151.035 47.9317 145 49C146.506 49.683 147.315 49.8259 149 50C145.089 54.004 140.994 57.1742 138 62L144 61C142.296 64.9991 140.604 68.6669 140 73L144 71C143.081 76.1962 143.081 80.8038 144 86L148 83C148.256 86.2026 148.942 88.9681 150 92C125.597 78.5027 77.4174 30.998 103 2C83.4837 1.06027 66.9146 34.5685 59.7523 49C43.896 80.9491 31.0478 125.818 46.4792 160C61.2336 192.682 97.169 213.5 90 254C121.739 214.506 55.9575 165.543 91 126C99.0702 152.228 87.6711 172.196 104 198C106.242 189.151 100.637 179.448 102.741 170C105.64 156.981 116.183 147.046 119 134C127.425 147.606 119.953 165.021 127 180C129.158 170.473 128.503 162.814 136.239 155.266C141.331 150.297 153.927 147.372 150.697 159C149.16 164.536 139.511 180.602 134.871 184.218C125.68 191.382 115.302 189.734 115 204C116.096 201.68 116.602 199.537 117 197C118.749 202.175 120.094 206.146 125 209C123.338 205.321 122.295 202.036 122 198C124.501 204.567 126.914 208.247 134 210C127.456 198.06 145.626 188.126 145 201C149.338 196.607 144.831 180.643 149.767 180.643C153.709 180.643 157.333 192.072 159.027 195C166.57 208.035 179.981 227.37 171.421 242.979C164.703 255.229 151.857 250.351 145.29 240.981C137.442 229.785 138.635 216.7 141 204C131.218 216.134 133.856 233.858 136 248C137.204 246.222 137.601 245.122 138 243C144.431 257.428 154.569 266.177 170 270C168.507 267.624 167.085 265.874 165 264C173.124 263.382 185.782 266.596 192 260C188.585 259.616 185.339 258.793 182 258C192.572 252.705 201.664 249.032 206 237C201.422 239.88 197.271 242.591 192 244C196.98 223.017 192.153 208.317 187.844 188.001C187.237 185.14 187.949 177.833 192.657 181.087C196.987 184.081 191.588 195.31 195 201C198.613 186.935 213.363 200.062 207 209C213.855 209.64 217.222 204.095 218 198C218.759 202.217 217.738 205.141 216 209C220.711 206.156 222.513 202.4 223 197C223.935 199.357 224.56 201.504 225 204C229.184 190.61 213.564 189.968 206.127 184.216C201.555 180.681 190.896 163.49 189.991 158.001C188.17 146.957 199.319 150.847 203.979 155.158C211.86 162.45 212.999 169.792 213 180C222.556 168.144 217.98 148.245 220 134L222 134C227.189 159.476 240.238 169.052 236 197C257.291 178.155 245.817 150.009 249 126C273.919 146.03 255.075 178.675 247.555 202C242.027 219.145 242.532 237.593 250 254C253.349 238.358 251.096 225.159 259.338 210C270.532 189.413 290.313 174.997 297.64 152C311.881 107.304 284.419 15.3404 236 0M136 29L137 30L136 29M179 48L178 49L179 48M191 54C186.257 55.5815 181.692 54.2875 177 53C181.557 51.6732 186.42 53.1469 191 54M223 195L222 196L223 195z"
     id="path2" />
</svg>
