<?xml version="1.0" encoding="UTF-8" standalone="no"?>
<svg
   xmlns:dc="http://purl.org/dc/elements/1.1/"
   xmlns:cc="http://creativecommons.org/ns#"
   xmlns:rdf="http://www.w3.org/1999/02/22-rdf-syntax-ns#"
   xmlns:svg="http://www.w3.org/2000/svg"
   xmlns="http://www.w3.org/2000/svg"
   xmlns:sodipodi="http://sodipodi.sourceforge.net/DTD/sodipodi-0.dtd"
   xmlns:inkscape="http://www.inkscape.org/namespaces/inkscape"
   width="794"
   height="596"
   version="1.1"
   id="svg4"
   sodipodi:docname="small_dragon.svg"
   inkscape:version="0.92.2 5c3e80d, 2017-08-06">
  <metadata
     id="metadata10">
    <rdf:RDF>
      <cc:Work
         rdf:about="">
        <dc:format>image/svg+xml</dc:format>
        <dc:type
           rdf:resource="http://purl.org/dc/dcmitype/StillImage" />
      </cc:Work>
    </rdf:RDF>
  </metadata>
  <defs
     id="defs8" />
  <sodipodi:namedview
     pagecolor="#ffffff"
     bordercolor="#666666"
     borderopacity="1"
     objecttolerance="10"
     gridtolerance="10"
     guidetolerance="10"
     inkscape:pageopacity="0"
     inkscape:pageshadow="2"
     inkscape:window-width="783"
     inkscape:window-height="480"
     id="namedview6"
     showgrid="false"
     inkscape:zoom="0.39597315"
     inkscape:cx="905.87288"
     inkscape:cy="301.66788"
     inkscape:window-x="0"
     inkscape:window-y="0"
     inkscape:window-maximized="0"
     inkscape:current-layer="svg4" />
  <path
     style="fill:#e1d700;fill-opacity:1;stroke:none;stroke-width:1.21149087"
     d="M 205.06949,7.3220359 C 213.77837,77.944532 316.20428,127.09979 380.45847,148.06871 c -25.41751,8.33894 -60.96848,26.05791 -87.06359,28.76466 -14.88662,1.54358 -32.75357,-4.70162 -47.94808,-5.41001 -38.63477,-1.80063 -77.63422,11.52028 -104.72866,37.13153 16.92694,-0.14535 35.94845,-12.37175 52.99524,-15.46469 7.143,-1.29581 51.5858,-2.86961 47.13672,11.65406 -2.40117,7.83994 -21.78609,17.7364 -28.20985,23.59427 -7.66413,6.98732 -14.50051,17.48515 -23.21571,23.13363 -34.56423,22.40199 -67.68879,21.30276 -86.56013,62.93354 11.14413,-6.64534 19.29279,-17.21065 30.283,-24.3201 31.52331,-20.39197 33.43114,6.28474 27.28623,28.97288 -2.58163,9.5324 -0.75331,24.27007 -4.95255,32.56949 -14.66704,28.988 -35.48409,44.92493 -36.21339,80.2605 10.03123,-13.52798 12.50814,-38.75536 31.5473,-45.39604 12.99897,-4.53413 29.08302,43.90715 27.73922,53.02893 -1.29208,8.76818 -12.24821,18.25053 -15.39513,27.26297 -7.17832,20.55833 -6.92092,42.74281 -4.77587,63.97578 4.73551,-11.28301 5.50898,-24.3457 9.04704,-36.05907 20.3262,-67.29203 72.26532,23.79433 81.74389,52.34382 2.03022,6.11492 1.13939,29.86039 6.1424,32.77652 12.08038,7.04548 47.65028,0.95613 62.05236,0.95613 h 167.81824 c 14.68598,0 56.83738,6.83495 67.69887,-1.86575 21.241,-17.01523 -7.60859,-64.08511 -20.11043,-78.39475 -26.19856,-29.98602 -64.904,-51.25155 -101.84546,-68.33774 -32.73844,-15.14132 -69.65593,-29.36489 -87.8497,-60.77698 -17.9313,-30.95845 -5.47492,-64.40731 16.11434,-90.72927 7.7209,-9.41258 19.30161,-23.86995 33.88162,-22.85213 30.11517,2.10305 31.49682,45.20527 42.11354,63.56399 23.21191,40.13606 77.97742,76.82908 128.22827,68.62854 -6.13988,-3.57334 -14.43363,-3.2046 -21.45046,-4.65278 4.26739,-4.23403 9.23001,-7.75968 13.8797,-11.63197 -17.07834,-3.37093 -59.81393,-1.54705 -21.45044,-16.28474 -13.27908,-7.07221 -28.35623,-2.12632 -40.04168,-14.01532 -2.59299,-2.63814 -9.60224,-10.06632 -4.62448,-13.407 5.04592,-3.38607 18.93193,0.0466 25.73929,-1.65755 -35.41849,-22.31244 -63.15139,-35.41466 -68.13671,-80.2605 39.971,36.8477 78.16163,77.53629 127.44089,104.11764 20.06375,10.82237 44.07312,11.32369 65.61315,18.44014 11.49997,3.79898 18.60386,11.91694 29.0212,17.02569 -7.47864,-20.87703 -24.07245,-18.73792 -39.11552,-30.2431 19.07954,0.002 33.2179,4.78424 50.47163,11.63196 C 663.0833,339.59006 609.65022,352.847 579.82147,340.86027 545.44146,327.04614 517.36031,295.19435 494.1446,269.04106 491.39137,265.94 468.24759,241.00339 474.49346,239.06318 c 24.57717,-7.63637 42.31922,33.61172 56.11817,41.60984 0,-11.94601 -0.40252,-22.82307 -6.30895,-33.73266 29.88046,-4.62487 38.73067,39.00427 58.04239,50.01741 0.55645,-5.59731 0.68262,-10.67699 0.14755,-16.28475 -2.99045,-31.35859 22.36904,-14.51203 36.25379,2.32639 2.41001,2.92427 6.45153,11.79248 10.73405,12.41945 10.76561,1.57496 -6.41117,-26.45223 4.78724,-27.63171 19.45177,-2.04956 23.41634,27.71547 33.68857,36.6488 7.61869,6.62557 7.02564,-13.12899 12.08039,-14.98778 11.4495,-4.21193 16.908,19.76387 15.86954,26.12073 39.59247,-13.29767 -6.63954,-72.23097 -25.23582,-82.7893 -22.14192,-12.57065 -56.45885,-15.97183 -75.47405,-31.72616 -11.74853,-9.73478 -5.07366,-25.07035 -14.44876,-35.5368 C 522.88055,100.90926 460.45218,52.686659 366.5787,52.686659 c 30.22872,13.06282 62.81323,10.540878 90.84896,31.07757 8.64076,6.330102 22.96714,17.769671 18.41205,29.408611 -12.5485,32.06 -60.10921,17.60381 -84.02518,10.87007 C 341.25706,109.80888 290.25042,90.062934 250.49391,57.077849 232.36448,42.036096 220.69039,23.942468 205.06941,7.3220359 M 545.75305,186.45417 c -15.93896,-2.09142 -31.06531,-7.17807 -44.1627,-15.89855 -2.97781,-1.98326 -13.27909,-7.78643 -9.96057,-12.22868 13.0608,-17.48865 51.15427,17.10014 54.12327,28.12723 m 131.22628,67.46535 c -37.53196,-2.41131 -12.33022,-28.15399 0,0 z"
     id="path2"
     inkscape:connector-curvature="0" />
</svg>
